<?xml version="1.0" standalone="no"?>
<!DOCTYPE svg PUBLIC "-//W3C//DTD SVG 1.1//EN" "http://www.w3.org/Graphics/SVG/1.1/DTD/svg11.dtd" >
<svg xmlns="http://www.w3.org/2000/svg">
<metadata>
Created by FontPrep 20130207 at Fri Aug  9 15:22:08 2013
 By Yann Gouffon
_null_name_substitute_
</metadata>
<defs>
<font id="4b64e0c1696756a4b9fa5940aba95444" >
  <font-face 
    font-family="Social-Regular"
    font-weight="400"
    font-stretch="normal"
    units-per-em="2048"
    panose-1="0 0 5 0 0 0 0 0 0 0"
    ascent="1638"
    descent="-410"
    x-height="1216"
    cap-height="1180"
    bbox="0 -305 1229.01 1432"
    underline-thickness="102"
    underline-position="-102"
    unicode-range="U+0020-007A"
  />
<missing-glyph 
d="M135 68h408v1228h-408v-1228zM68 0v1364h542v-1364h-542z" />
    <glyph glyph-name=".notdef" 
d="M135 68h408v1228h-408v-1228zM68 0v1364h542v-1364h-542z" />
    <glyph glyph-name=".null" horiz-adv-x="0" 
 />
    <glyph glyph-name="nonmarkingreturn" 
 />
    <glyph glyph-name="space" unicode=" " 
 />
    <glyph glyph-name="A" unicode="A" 
d="M457 471l-76 156q-63 -41 -87 -92t-15 -80l8 -31zM430 872l53 -108q4 0 9 2q313 47 483 -23t229 -145l25 -31l-510 -147l-119 242q80 12 158 -3l51 -94l172 47q-12 12 -72 39q-202 91 -391 37l141 -287l-512 -147q-21 48 -28 117q-8 69 4 125t65 122q53 64 148 103
l-66 133z" />
    <glyph glyph-name="B" unicode="B" 
d="M336 326q127 0 127 101q0 64 -49 87q-25 10 -76 14h-186v-202h184zM949 649q-54 0 -87 -35t-39 -84h252q-2 57 -37 88t-89 31zM819 432q7 -139 152 -139q59 0 100 63h150q-6 -47 -56 -100q-74 -82 -200 -82t-207 70q-86 68 -86 219t78 229t200 78q155 0 228 -111
q35 -47 43 -101t8 -126h-410zM336 653q112 0 110 86q0 51 -40 70q-33 12 -89 12h-165v-168h184zM784 823v95h326v-95h-326zM506 600q117 -46 117 -169t-88 -189q-64 -49 -193 -49h-342v759h367q139 -4 196 -82q35 -46 35 -114t-35 -113q-16 -18 -57 -43z" />
    <glyph glyph-name="C" unicode="C" 
d="M997 844h-768l11 -119l4 -35h587l-12 -158h-387l4 -40l6 -78l4 -35h359l-19 -201l-172 -45v-2l-170 47l-12 123h-153l20 -242l315 -88v2l316 86l28 320v6l39 418v41zM113 -166l-113 1256h1229l-113 -1256l-502 -139zM967 1196h-219v66h106l-106 114v56h215v-66h-103
l107 -115v-55zM709 1196h-217v66h106l-106 114v56h213v-66h-101l105 -115v-55zM340 1264h111v-68h-189v236h189v-68h-111v-100z" />
    <glyph glyph-name="D" unicode="D" 
d="M614 39q106 0 205 41q-33 193 -112 399l-2 -2q-173 -61 -273 -157t-127 -148l-12 -22l-12 8q145 -119 333 -119zM907 127q190 129 226 352q-43 18 -146 29q-104 10 -182 -4q65 -178 102 -377zM90 580v-17q0 -201 133 -350q98 163 275 273q74 46 153 73l21 6
q-14 31 -43 88q-250 -73 -539 -73zM1139 569q0 182 -119 328l-2 -2q-96 -127 -291 -207q25 -49 35 -76l12 -26q108 13 209 4t133 -17zM391 1038q-111 -53 -187 -149t-104 -217q248 0 486 63q-46 82 -88 146l-70 105q-27 42 -37 52zM614 1087q-68 0 -122 -14q0 -2 13 -19
t75 -109t106 -179q88 33 157 81q69 49 93 77t25 32q-147 131 -347 131zM1180 803q49 -110 49 -240q0 -131 -49 -239q-35 -97 -127 -190t-199 -136q-108 -49 -239 -49t-240 49q-167 70 -271 221q-35 49 -55 105q-49 108 -49 239t49 240q36 99 128 191t198 134q105 48 236 49
q130 1 240 -46q110 -48 176 -113q67 -66 99 -113t54 -102z" />
    <glyph glyph-name="E" unicode="E" 
d="M825 618q9 -6 63 -2t77 -10q2 42 -31 62t-70 4t-39 -54zM287 1145q28 -4 12 -122q-6 -44 2 -79h-203q26 36 94 100t95 101zM713 1081q340 49 413 -112q47 -129 44 -328t-47 -393t-95 -230q-51 -35 -123 -47q-148 -25 -257 49q-110 74 -21 236q26 18 104 38q33 7 57 -5
t25 -47q7 -46 -56 -41t-57 -45q10 -46 90 -52t123 13q66 129 -8 191q-59 52 -190 74q-31 5 -76 11q-18 43 -12 125q-27 -16 -30 -93t-22 -95q-29 2 -133 -1t-162 7t-106 45q-33 25 -71 135t-47 217q-9 106 30 162q39 25 129 19t123 18q16 16 6 74t-6 88q14 57 104 82t178 -1
t93 -94z" />
    <glyph glyph-name="F" unicode="F" 
d="M717 979h256l-47 -262h-209v-713h-314v713h-147v262h147v137q0 111 62 203q33 49 99 80t155 31h229v-259h-164q-68 0 -67 -71v-121z" />
    <glyph glyph-name="G" unicode="G" 
d="M387 8q276 0 277 199q0 39 -24 76t-66 63q-8 6 -36 26t-38 25q-164 47 -283 -44q-80 -60 -80 -143q0 -82 72 -142t178 -60zM495 1050q-56 68 -130 70t-117 -64t-30 -160q12 -94 72 -156t135 -65t113 54t26 155t-69 166zM1061 995h168v-86h-168v-166h-82v166h-168v86h168
v166h82v-166zM82 890q0 116 100 202t238 86h362l-82 -84h-94q102 -61 103 -205q0 -109 -107 -195q-45 -35 -66 -67t-3 -59t57 -60q40 -33 45 -35q86 -63 114 -115t27 -137q0 -109 -108 -191t-275 -81q-169 0 -281 60t-112 165t103 193t255 88h66q-53 53 -53 92t20 74
q-14 0 -35 -3q-126 0 -200 78t-74 194z" />
    <glyph glyph-name="H" unicode="H" 
d="M989 715l6 78l4 41h-770l41 -465h533l-19 -201l-170 -45l-172 45l-10 123h-156l23 -242l315 -88v2l316 86l37 432l4 41h-559l-15 158h588zM113 -164l-113 1254h1229l-113 -1254l-502 -139zM1008 1274h108v-78h-188v234h80v-156zM702 1196h-75v234h80l51 -82l49 82h82
v-234h-78v117l-53 -84h-2l-54 84v-117zM444 1196v158h-67v76h215v-76h-70v-158h-78zM193 1276v-80h-78v234h78v-76h71v76h78v-234h-78v80h-71z" />
    <glyph glyph-name="I" unicode="I" 
d="M741 529q0 50 -34 86q-35 36 -86 36t-86 -36t-35 -86t35 -85q35 -34 86 -34t86 34q34 35 34 85zM307 59h615q80 -1 136 57t56 138v399h-229q27 -53 26 -123q0 -120 -85 -206q-86 -86 -206 -86t-205 86t-85 206q0 63 26 123h-241v-399q0 -80 56 -138t136 -57zM887 823
q-15 1 -25 11t-10 24v105q0 14 10 24t25 10h104q15 0 25 -10t10 -24v-105q0 -14 -10 -24t-25 -11h-104zM922 1067h-615q-80 0 -136 -57t-56 -138v-104h336q76 53 171 53t166 -53h326v104q0 80 -56 138t-136 57zM307 1180h615q127 0 217 -90t90 -218v-618q0 -127 -90 -217
t-217 -90h-615q-127 0 -217 90t-90 217v618q0 128 90 218t217 90z" />
    <glyph glyph-name="J" unicode="J" 
d="M618 197q4 0 12 -4t11 -5q165 -37 317 2t242 158q-2 -4 -17 -37t-60 -90t-89 -86q-45 -29 -96 -57q-52 -28 -110 -38q-58 -9 -132 -15t-157 14q-14 2 -25 8h-6q-12 2 -23 8h-2q-16 8 -20 8l-2 3h-5q-2 0 -63 28q-17 11 -32 19t-20 12t-13 9t-11 6q-2 1 -2 2t-11 8t-11 10
q-6 2 -14 10l-23 16q0 2 -4 5l-37 36l-16 17v2q-2 2 -5 4t-7 6l-19 25q-4 4 -8 10t-8 10l-2 4q-11 11 -14 18t-5 7l-8 14l-4 8q-2 2 -4 8l-4 5l-17 30q-66 129 -66 267t78 247l82 105q-66 -138 -46 -286t112 -273q6 -9 11 -15t9 -11t9 -11q4 0 4 -4l16 -19q6 -10 16 -16
q0 -4 5 -4q15 -22 34 -35q0 -2 2 -2l41 -33q5 -2 9 -6t8 -6l2 -2h2q14 -10 18 -13t15 -9q12 -7 16 -11q24 -8 27 -14l41 -19l33 -13q8 -3 12 -5t6 -2l22 -6q2 -2 6 -2zM764 532l31 -8q8 -6 20 -6q127 -33 239 4t175 127q-2 -4 -4 -10q-10 -31 -43 -80t-67 -73
q-95 -65 -146 -73q-141 -24 -189 -14t-67 19q-16 4 -17 6q-16 0 -26 10h-2l-33 17q-2 0 -4 2l-17 8q-2 2 -12 7t-16 10t-15 11t-14 11l-20 18h-2l-39 39q-6 4 -35 45q-86 122 -84 239t59 197l62 88q-78 -131 -30 -278t165 -240q18 -18 26 -18q10 -10 15 -10q6 -6 12 -8
q28 -12 37 -21l25 -10q8 -2 16 -9zM713 1135l35 45q-44 -86 -14 -176t106 -148q31 -23 44 -29t23 -11t17 -5q6 -4 26 -8q170 -43 246 65q0 -11 -28 -46t-60 -59q-33 -24 -64 -28q-30 -4 -66 -8t-62 3t-27 7l-4 2q-140 51 -191 172q-49 122 19 224z" />
    <glyph glyph-name="K" unicode="K" 
d="M1229 563q0 -113 -80 -193t-193 -79q-112 0 -192 80q-80 81 -80 193t80 192t192 80t193 -80q80 -80 80 -193zM545 563q0 -113 -80 -193t-193 -79q-112 0 -192 80q-80 81 -80 193t80 192t192 80t193 -80q80 -80 80 -193z" />
    <glyph glyph-name="L" unicode="L" 
d="M16 -25v793h263v-793h-263zM967 -25v424q0 180 -136 181q-98 0 -135 -97q-8 -25 -8 -65v-443h-264v793h264v-113q82 131 228 131t230 -90q83 -90 83 -266v-455h-262zM145 877q-65 -1 -105 39t-40 98t41 98q41 39 108 39t107 -39t40 -98q1 -58 -40 -98t-109 -39h-2z" />
    <glyph glyph-name="M" unicode="M" 
d="M705 45v803l200 -125v-700l-291 -183l-290 183v700l200 125v-803l90 -57zM614 1286l615 -379v-686l-164 -100v690l-2 2l-449 279l-448 -279l-2 -2v-688l-164 98v686z" />
    <glyph glyph-name="N" unicode="N" 
 />
    <glyph glyph-name="O" unicode="O" 
d="M229 600q0 90 62 156q-29 74 6 159q61 11 166 -61q69 20 151 20t152 -20q115 78 166 61q35 -86 6 -159q61 -66 61 -162q1 -160 -77 -222t-203 -77q49 -33 49 -109v-123q160 53 262 191t103 309q0 215 -152 367t-367 152q-214 0 -366 -152t-152 -367q0 -172 102 -309
t263 -191v99q-59 -19 -128 10q-30 13 -54 61q-25 61 -60 78q-27 15 -18 23t22 8q53 -2 82 -53q55 -92 160 -43q8 33 47 49q-205 21 -259 155q-24 60 -24 150zM1229 563q0 -256 -180 -435q-181 -179 -435 -179t-434 179t-180 435t180 435q180 180 434 180t434 -180t181 -435z
" />
    <glyph glyph-name="P" unicode="P" 
d="M346 238l25 53q100 -23 132 52q31 75 -33 134t-53 85t54 8t72 -52l41 53q-27 31 -70 52l21 47l-54 20l-20 -49q-96 23 -131 -55q-29 -63 55 -140q47 -41 37 -69q-16 -33 -68 -12q-43 23 -78 63l-40 -57q25 -33 79 -62l-20 -49zM729 747q0 -13 -14 -27q-15 -14 -31 -15
q-16 0 -30 13q-14 14 -13 32q0 18 12 30t29 13q10 23 25 41q-16 4 -23 4q-36 0 -62 -27t-26 -63t26 -61q26 -26 62 -26t64 25q25 27 24 63q0 36 -24 62l-3 2q-14 -18 -24 -41q8 -12 8 -25zM684 936l57 -57q49 57 103 73t129 7t103 -10q58 -2 108 98q12 20 30 10t9 -29
q-64 -128 -144 -123q-35 2 -104 10t-115 -5t-88 -62l98 -98v-187l-497 -500l-373 375l498 498h186z" />
    <glyph glyph-name="Q" unicode="Q" 
 />
    <glyph glyph-name="R" unicode="R" 
d="M164 -53q-68 0 -116 48t-48 116q0 67 48 115t116 48t116 -48t48 -116t-48 -115q-48 -48 -116 -48zM0 762q336 0 574 -240t237 -577h-238q0 240 -167 411q-168 168 -406 168v238zM0 1182q334 0 616 -166t448 -451q165 -285 165 -620h-236q0 270 -133 500
q-133 231 -362 365t-498 134v238z" />
    <glyph glyph-name="S" unicode="S" 
d="M766 616q72 0 114 30t42 63q2 18 -10 32t-27 15q-35 -4 -41 -35q-2 -9 5 -21t9 -19t-12 -19q-39 -27 -111 -17l10 53q13 68 23 108t40 80t67 41t38 -16q0 -4 -8 -17t-8 -30q0 -43 49 -43q25 3 37 21t10 44t-32 46q-31 20 -78 18q-87 -2 -151 -77t-103 -185q-10 8 -47 43
t-82 47q-78 23 -144 -24q-31 -22 -48 -78t40 -121l37 -39q27 -28 19 -56t-36 -40q-26 -12 -55 -4q-53 21 -30 49q20 29 10 53t-29 31q-47 12 -57 -29q-9 -34 13 -70t90 -58t127 10t69 90t-51 126l-31 35q-37 37 -8 74t68 26t59 -25t43 -35q23 -22 35 -29q-18 -68 -39 -166
l-7 -39q-25 -131 -49 -195t-63 -98q-33 -23 -52 -23t-20 15q-2 6 12 16q19 10 19 32t-15 38t-37 15t-44 -19q-20 -18 -20 -49t30 -53q29 -22 74 -19q98 6 180 104t121 289l20 109q15 -5 35 -5zM614 1178q254 0 434 -180t181 -435q0 -256 -180 -435q-181 -179 -435 -179
t-434 179t-180 435q0 255 180 435t434 180z" />
    <glyph glyph-name="T" unicode="T" 
d="M1104 782q0 -127 -48 -253q-108 -283 -363 -401q-139 -65 -329 -65t-364 113q20 -2 59 -2q178 0 314 107q-82 2 -147 51t-89 125q33 -4 59 -4t56 8q-88 18 -146 88q-57 70 -57 160v2q51 -27 115 -31q-113 76 -113 209q0 70 35 127q201 -246 518 -262q-6 29 -6 57
q0 104 74 178t182 74t180 -80q90 18 160 61q-29 -92 -111 -139q83 10 146 39q-51 -78 -125 -129v-33z" />
    <glyph glyph-name="U" unicode="U" 
d="M434 594q0 16 -9 46t19 48l-14 53q-35 104 10 166q16 23 47 29q20 31 88 44q68 12 134 -18q67 -30 75 -118t-6 -152q14 0 23 -20q8 -20 -8 -62l-17 -37q-12 -18 -24 -10q-8 -80 -50 -92l5 -45l49 -6q-6 -45 0 -49q46 -19 110 -35t111 -53q-119 -152 -309 -174h-107
q-186 20 -305 170q10 10 74 39q63 28 91 37t52 20l2 47h47l2 24q0 10 -2 23l-15 5q-9 3 -25 27q-15 24 -15 60q-2 2 -8 -1t-16 7q-9 11 -9 27zM614 47q213 0 365 152q151 153 151 365t-151 364q-152 152 -365 152q-212 0 -364 -152t-152 -365t152 -365t364 -151zM614 1178
q254 0 434 -180t181 -435q0 -256 -180 -435q-181 -179 -435 -179t-434 179t-180 435q0 255 180 435t434 180z" />
    <glyph glyph-name="V" unicode="V" 
d="M645 389q49 0 162 211q53 96 7 156t-144 4q25 154 168 233q127 72 233 27q121 -55 92 -229q-23 -129 -95 -261t-160 -229q-173 -190 -285 -262q-53 -37 -105 -22q-95 28 -141 126q-18 39 -99 304q-82 265 -100 283q-32 32 -104 -17l-27 -19l-47 64q24 26 60 66t129 114
q225 179 290 2q28 -76 45 -180q16 -103 25 -135q57 -236 96 -236z" />
    <glyph glyph-name="W" unicode="W" 
d="M620 37q-86 0 -155 20l158 461l163 -444v-4l2 -4q-82 -29 -168 -29zM88 543q0 133 45 235l252 -690q-135 66 -216 194t-81 261zM1079 735q0 66 -2 82q63 -117 63 -257t-70 -262t-191 -189l161 464q39 96 39 162zM224 852q-38 0 -50 2q72 110 188 174t252 64
q205 0 357 -140h-8q-37 0 -63 -28t-26 -67q0 -40 48 -119t49 -132q0 -53 -41 -186l-53 -176l-191 567l62 4q20 5 19 25t-24 20q-84 -8 -139 -8l-139 8q-15 0 -21 -11t-2 -23t19 -11l55 -4l82 -225l-115 -346l-192 571l61 4q20 4 20 25q-1 20 -24 20q-86 -8 -124 -8zM614 -23
q242 0 414 171t172 415t-172 415t-414 171t-414 -171t-171 -415q-1 -244 171 -415t414 -171zM614 1178q254 0 434 -180t181 -435q0 -254 -180 -434q-181 -180 -435 -180t-434 180t-180 434q0 255 180 435t434 180z" />
    <glyph glyph-name="X" unicode="X" 
d="M1094 430h108q27 0 27 -27v-239q0 -27 -27 -27h-108q-27 0 -27 27v239q0 27 27 27zM1139 453h-45q-20 -1 -34 -15t-16 -35v-239q0 -10 3 -14h-256q-20 0 -21 18v428q0 20 21 20h327q20 0 21 -20v-143zM1077 963v-324h-286q-41 0 -41 -43v-317h-113l45 -119q0 -16 -16 -17
h-254q-18 0 -19 17l45 119h-411q-27 0 -27 26v658q0 27 27 26h1024q26 1 26 -26z" />
    <glyph glyph-name="Y" unicode="Y" 
d="M915 319q0 35 28 35t28 -35v-32h-56v32zM729 356q25 0 25 -32v-160q0 -29 -18 -29t-34 15v194q12 12 27 12zM416 141q0 -55 41 -55t73 39v-35h64v311h-64v-235q-22 -22 -36 -23q-17 0 -17 21v237h-61v-260zM1034 317q0 93 -89 93q-40 0 -68 -25q-25 -29 -25 -68v-139
q0 -44 24 -70t64 -26q96 0 94 96v17h-63v-15q0 -29 -6 -36q-5 -7 -21 -7t-22 8t-7 35v60h119v77zM702 512h-63v-422h63v25q25 -29 60 -29q57 0 57 70v172q0 76 -61 78q-29 0 -56 -29v135zM315 451h74v61h-215v-61h72v-361h69v361zM223 592h781q94 0 160 -66t65 -159v-181
q0 -92 -66 -158t-159 -65h-781q-91 0 -157 66t-66 157v181q0 93 66 159t157 66zM635 967q0 24 -29 24t-31 -24v-187q0 -14 7 -22q12 -8 22 -8t23 8q8 12 8 22v187zM834 780q0 -14 3 -18t17 -4t39 24v260h70v-342h-70v37q-41 -41 -82 -43q-49 0 -49 62v286h72v-262zM707 963
v-179q0 -42 -30 -68t-73 -26t-72 26t-28 70v179q0 39 26 63q29 23 75 23q46 -1 74 -25t28 -63zM406 700h-80v183l-93 280h78l54 -184h4l49 184h80l-92 -270v-193z" />
    <glyph glyph-name="Z" unicode="Z" 
 />
    <glyph glyph-name="a" unicode="a" 
d="M1106 68h-297q96 47 172 135h125v55l123 -123l-123 -123v56zM197 563q0 -92 43 -171t116 -128h-194q-100 129 -100 309q0 181 126 321q127 140 312 163l-66 -66l72 -71q-131 -18 -220 -120t-89 -237zM1053 555q1 -197 -145 -342t-351 -145h-557l68 67l-68 68h557
q150 0 255 105q106 104 106 246t-86 242t-214 122v-50l-122 123l122 123v-59q184 -23 310 -163t125 -337z" />
    <glyph glyph-name="b" unicode="b" 
d="M1055 274q23 0 22 -24v-4q-39 -203 -43 -230q-14 -70 -135 -116t-285 -45q-164 0 -284 46t-135 115q-4 27 -43 230v4q0 25 22 24l66 -41q32 -20 142 -53t232 -33t228 30t151 61l45 28q9 8 17 8zM614 686q41 0 70 -29t29 -69t-29 -68t-70 -28q-42 0 -70 28t-28 70
q0 40 28 68t70 28zM614 393q82 -1 138 57t57 139q0 81 -56 138q-57 57 -139 57t-138 -57t-56 -138t56 -139t138 -57zM615 1006q163 0 278 24t115 59t-115 59t-279 25t-278 -24t-115 -59t115 -60q116 -24 279 -24zM614 1272q254 0 434 -60t181 -143q0 -25 -103 -625
q-12 -66 -157 -127t-355 -61t-354 61q-145 61 -158 127q-102 600 -102 625q0 83 180 143t434 60z" />
    <glyph glyph-name="c" unicode="c" 
d="M391 564q0 88 66 157q69 65 157 65t158 -65q66 -70 66 -158t-66 -157q-70 -66 -158 -66t-157 66q-66 70 -66 158zM1229 563q0 -252 -177 -432t-429 -182l249 434q56 77 56 195t-92 210h350q43 -109 43 -225zM0 563q0 162 80 303l250 -438q38 -80 114 -129t148 -49t106 10
l-174 -303q-224 35 -374 206t-150 400zM135 948q185 230 491 230q156 0 294 -81t223 -223h-502q-8 2 -27 3q-113 0 -192 -66q-84 -63 -113 -168z" />
    <glyph glyph-name="d" unicode="d" 
d="M746 -31q-110 0 -160 39q-4 4 -12 4t-19 -10q-18 -10 0 -29q63 -57 231 -43q59 4 98 28q38 24 47 33t3 19q-4 14 -19 4q-59 -45 -169 -45zM807 127q45 -1 60 -29t24 -22q18 8 12 26q-19 42 -35 52t-56 10t-64 -11t-56 -42q-26 -17 -14 -31t43 10q41 37 86 37zM1188 328
q0 40 -22 76t-60 36t-134 -66q-97 -66 -130 -68q-33 -1 -88 39q-162 118 -258 117q-96 -2 -162 -64t-68 -146q-4 -158 193 -158q72 0 211 83t173 81q33 -2 109 -79t101 -79t44 12t44 50q47 68 47 166zM516 1033q0 17 -13 23t-7 7q34 11 51 31q35 23 36 61q1 37 -12 86
q-12 -96 -75 -145q-25 -18 -136 -82q-68 -30 -132 -86q-93 -82 -103 -124q-3 -13 10 -26q41 -14 157 56t191 149q33 33 33 50zM580 -139q-17 0 -37 4h-2l-4 2q-19 0 -27 4l-35 6l-12 4q-4 0 -12 4l-13 2l-22 7l-29 12q-4 0 -6 2t-11 4t-13 6q-5 4 -12 6t-15 8l-25 13
q-6 6 -22 14h-2l-48 35h-2q-96 76 -151 172q-80 143 -80 301q0 334 299 526q4 2 9 4t8 5t76 40t108 72q58 48 63 152h2q115 -139 172 -168q29 -16 89 -44t92 -46l2 -2q309 -197 309 -549q0 -264 -178 -430t-430 -166h-41z" />
    <glyph glyph-name="e" unicode="e" 
d="M387 63q-170 104 -237 291q-115 -221 -31 -305q71 -72 268 14zM907 627q-5 94 -73 156q-68 63 -161 63t-159 -64q-70 -63 -74 -155h467zM881 1059q160 -63 258 -213q55 160 -6 221q-66 70 -252 -8zM440 477q0 -63 27 -117q33 -57 91 -92t126 -35t127 35q57 35 88 92h301
q-56 -164 -200 -269t-324 -105q-129 0 -254 57q-264 -125 -381 -12q-41 41 -41 131t35 192q35 115 112 240q75 125 167 216t104 101q-152 -72 -285 -235q47 186 197 305q154 119 346 119q14 0 39 -4q135 61 256 69t168 -37q96 -98 16 -307q74 -129 74 -278q0 -45 -2 -64
h-787v-2z" />
    <glyph glyph-name="f" unicode="f" 
d="M809 1020q-2 0 -4 2q61 16 121 16q-10 24 -72 39l-47 13q-22 4 -51 12q66 18 211 -29q53 -16 97 -63q44 -46 50 -58t11 -24t8 -19v11q2 10 -5 36q-2 23 -16 54q4 0 6 -4q15 -5 45 -84q31 -80 49 -240l15 90q2 -8 2 -82q0 -262 -144 -457q-41 -59 -127 -120
q-128 -84 -299 -97q-5 0 -31 -3t-73 1q-299 25 -455 293q-74 129 -82 242q-8 -45 -8 -57q-8 133 21 223q-23 -37 -31 -68q24 147 80 223v9q-6 67 12 121t32 68t17 19q2 -57 60 -110q10 -2 26 -2q55 10 125 -2q41 47 119 65h45q-68 -39 -84 -116q27 -55 70 -56h53q41 0 43 -8
v-4q4 -2 0 -6v-6q-5 -29 -20 -37q0 -2 -3 -2q-6 -6 -52 -35q-46 -28 -46 -37v-2h-2q8 -20 11 -40t1 -21v-23q-25 14 -55 21q-33 -14 -39 -33l-4 -19q0 -47 64 -84q27 -16 55 -20q41 0 74 14t41 15q70 20 116 -33q14 -14 6 -28t-24 -7q-9 -4 -13 -3q-11 2 -27 -9t-23 -16
t-11 -9l-18 -10q-27 -20 -82 -30t-90 -1q29 -23 45 -31l55 -30q95 -57 213 -19q33 14 74 49q40 37 60 67t26 36q3 0 -12 -64l-7 -34q43 31 59 113t3 155q29 -12 41 -45l4 -4q12 39 16 116t-14 123q33 -10 57 -61q-19 119 -133 203q-62 34 -81 40q-19 5 -23 7t-16 4t-15 2z
" />
    <glyph glyph-name="g" unicode="g" 
 />
    <glyph glyph-name="h" unicode="h" 
d="M610 629h6l328 268l-264 -324v-14q0 -29 -20 -48t-49 -19q-28 0 -46 17t-22 44l-170 225l215 -153q16 4 22 4zM637 145v-86q185 11 327 149t154 304h-131v74h131q-12 186 -153 327t-328 154v-131h-74v131q-166 -13 -303 -155t-149 -326h86v-74h-86q12 -164 150 -302
t302 -151v86h74zM614 1178q254 0 434 -180t181 -435q0 -256 -180 -435q-181 -179 -435 -179t-434 179t-180 435q0 255 180 435t434 180z" />
    <glyph glyph-name="i" unicode="i" 
 />
    <glyph glyph-name="j" unicode="j" 
 />
    <glyph glyph-name="k" unicode="k" 
 />
    <glyph glyph-name="l" unicode="l" 
 />
    <glyph glyph-name="m" unicode="m" 
d="M616 403q-62 0 -100 41l-59 60l-312 -320h938l-309 318l-57 -60q-39 -39 -101 -39zM1143 246v626l-307 -309zM86 246l311 319l-311 316v-635zM578 504q18 -14 42 -14t35 14l435 438h-945zM0 100v926h1229v-926h-1229z" />
    <glyph glyph-name="n" unicode="n" 
 />
    <glyph glyph-name="o" unicode="o" 
d="M428 920q-20 -76 -31 -152q-8 -102 -8 -172q0 -248 36 -365t97 -151q37 -23 90 -23q101 0 154 88q50 88 61 205q6 39 11 117l2 115q-3 209 -39 338q-51 155 -190 155q-140 0 -183 -155zM1229 582q0 -276 -174 -475q-173 -197 -441 -197t-441 196t-173 474q0 280 171 458
t441 178t443 -179q174 -179 174 -455z" />
    <glyph glyph-name="p" unicode="p" 
 />
    <glyph glyph-name="q" unicode="q" 
 />
    <glyph glyph-name="r" unicode="r" 
d="M150 117l20 -21l145 94l-71 72zM580 678l151 -152l29 29l-152 152zM160 0q-16 0 -31 16l-53 -53q-12 -12 -30 -12t-30 12q-29 29 0 60l54 53q-29 29 -11 57l123 191q-16 23 -2 45l230 405q10 20 29 22t36 -12l45 -45l29 27l-45 45q-29 33 0 59l287 289q29 29 59 0
q12 -11 12 -29t-12 -30l-258 -258l45 -45v-2l213 -209v-2l45 -45l258 258q31 33 59 0q12 -11 12 -29t-12 -29l-288 -288q-10 -13 -28 -13t-30 13l-47 45l-28 -29l47 -45q12 -12 11 -34t-22 -32l-405 -229q-10 -6 -20 -6t-25 8l-191 -123q-10 -6 -26 -6z" />
    <glyph glyph-name="s" unicode="s" 
d="M614 399q34 -1 67 19q67 41 54 131q-6 18 -8 22l-70 -92l-92 -69q8 -6 33 -11h16zM614 645q-66 0 -102 -54t-10 -118l69 92l93 70q-8 6 -33 10h-17zM741 588l156 -6l-139 -64q0 -31 -13 -57l58 -62l-80 29q-18 -20 -45 -33l-4 -155l-64 139q-37 4 -63 16l-250 -190
l190 252v2l-155 4l139 65q0 29 12 56l-57 61l80 -29q16 18 45 35l4 154l63 -139q35 -4 64 -15l250 189l-191 -250v-2zM614 989q-31 0 -61 -6l-14 -102l-56 90q-119 -35 -198 -119q-137 -137 -138 -330q0 -31 7 -61l102 -15l-90 -55q35 -119 119 -198q137 -137 329 -138
q31 0 62 6l14 103l55 -90q119 35 199 119q137 141 137 329q0 31 -6 62l-102 16l90 53q-35 119 -119 199q-141 137 -330 137zM496 1198q-22 0 -36 -3t-26 -15t-8 -23q2 -14 25 -20q8 14 26 19t33 -7q16 14 14 29q-6 20 -28 20zM1229 522q0 -254 -180 -434
q-181 -180 -435 -180t-434 180t-180 434q0 209 125 373q127 164 321 219v2q-37 10 -38 37q-6 18 10 39q26 27 72 27t53 -39q6 -25 -21 -45q0 -4 2 -5q43 6 90 7q254 -1 434 -181t181 -434z" />
    <glyph glyph-name="t" unicode="t" 
d="M962 1014q-42 0 -71 -29t-29 -71t29 -72t72 -29q43 0 71 30q28 29 29 71q0 42 -29 71q-30 29 -72 29zM486 -41q-40 0 -68 29l-381 383q-29 27 -29 67t29 68l639 639q37 33 78 26l-2 5l333 -76q45 -8 62 -62l67 -305q25 -61 -20 -104l-639 -641q-29 -29 -69 -29z" />
    <glyph glyph-name="u" unicode="u" 
 />
    <glyph glyph-name="v" unicode="v" 
 />
    <glyph glyph-name="w" unicode="w" 
 />
    <glyph glyph-name="x" unicode="x" 
 />
    <glyph glyph-name="y" unicode="y" 
 />
    <glyph glyph-name="z" unicode="z" 
 />
  </font>
</defs>
</svg>
