<?xml version="1.0" encoding="utf-8"?>
<!-- Generator: Adobe Illustrator 16.0.0, SVG Export Plug-In . SVG Version: 6.00 Build 0)  -->
<!DOCTYPE svg PUBLIC "-//W3C//DTD SVG 1.1//EN" "http://www.w3.org/Graphics/SVG/1.1/DTD/svg11.dtd">
<svg version="1.1" id="Layer_1" xmlns="http://www.w3.org/2000/svg" xmlns:xlink="http://www.w3.org/1999/xlink" x="0px" y="0px"
	 width="290.543px" height="50.711px" viewBox="0 0 290.543 50.711" enable-background="new 0 0 290.543 50.711"
	 xml:space="preserve">
<g>
	<path fill="#FFFFFF" d="M136.242,33.732c-0.947,0-1.849-0.502-1.849-1.593V17.891h4.582v-5.749h-4.582V3.021l-6.669,3.586v5.535
		h-4.034v5.749h4.034v15.629c0,3.038,1.903,6.284,7.248,6.284c2.515,0,4.169-0.664,4.169-0.664v-5.962
		C139.141,33.179,137.29,33.732,136.242,33.732z"/>
	<path fill="#FFFFFF" d="M78.682,33.732c-0.947,0-1.849-0.502-1.849-1.593V17.891h4.581v-5.749h-4.581V3.021l-6.67,3.586v5.535
		H66.13v5.749h4.033v15.629c0,3.038,1.904,6.284,7.25,6.284c2.514,0,4.167-0.664,4.167-0.664v-5.962
		C81.581,33.179,79.73,33.732,78.682,33.732z"/>
	<path fill="#FFFFFF" d="M52.222,11.467c-2.567,0-5.749,1.637-7.164,3.992l-0.467-3.351h-5.944v27.731h6.655V23.792
		c0-3.782,3.117-6.125,6.007-6.125c3.789,0,5.137,3.242,5.137,6.276v15.894h6.651V23.625C63.096,15.785,59.234,11.467,52.222,11.467
		z"/>
	<path fill="#FFFFFF" d="M253.574,27.211c0,3.784-3.197,6.125-6.156,6.125c-3.165,0-4.233-1.582-4.233-6.277V12.144h-6.65v15.537
		c0,8.181,3.309,12.157,10.119,12.157c2.779,0,5.681-1.254,7.316-3.709l0.312,3.069h5.946V12.143h-6.653V27.211L253.574,27.211z"/>
	<path fill="#FFFFFF" d="M185.614,33.732c-0.949,0-1.851-0.502-1.851-1.593V17.891h4.581v-5.749h-4.581V3.021l-6.67,3.586v5.535
		h-4.034v5.749h4.034v15.629c0,3.038,1.905,6.284,7.249,6.284c2.514,0,4.168-0.664,4.168-0.664v-5.962
		C188.511,33.179,186.661,33.732,185.614,33.732z"/>
	<rect x="86.671" y="12.108" fill="#FFFFFF" width="6.653" height="27.731"/>
	<path fill="#FFFFFF" d="M89.995,0c-2.223,0-4.032,1.81-4.032,4.034c0,2.223,1.809,4.032,4.032,4.032
		c2.225,0,4.033-1.81,4.033-4.032C94.029,1.81,92.219,0,89.995,0z"/>
	<rect x="193.783" y="12.108" fill="#FFFFFF" width="6.654" height="27.731"/>
	<path fill="#FFFFFF" d="M197.11,0c-2.226,0-4.033,1.81-4.033,4.034c0,2.223,1.808,4.032,4.033,4.032c2.22,0,4.032-1.81,4.032-4.032
		C201.143,1.81,199.331,0,197.11,0z"/>
	<path fill="#FFFFFF" d="M290.543,26.871c0-4.622-1.094-8.43-3.269-11.156c-2.082-2.608-5.148-4.236-9.234-4.236
		c-3.727,0-7.126,1.476-9.568,4.204c-2.417,2.691-3.748,6.409-3.748,10.465c0,9.131,6.819,14.303,13.169,14.303
		c6.348,0,10.394-2.825,11.892-6.956l-6.265-1.817c-1.069,1.653-2.601,2.635-5.627,2.635c-3.727,0-5.983-3.093-6.141-6.016h18.719
		C290.469,28.297,290.543,27.427,290.543,26.871z M271.878,23.035c0.447-2.575,2.045-5.519,5.991-5.519
		c3.951,0,5.444,2.659,5.644,5.519H271.878z"/>
	<path fill="#FFFFFF" d="M13.94,1.341L0,39.784h7.295l2.675-7.733h14.679l2.745,7.733h7.781L21.208,1.341H13.94z M12.176,25.581
		l5.129-14.806l5.045,14.806H12.176z"/>
	<path fill="#FFFFFF" d="M97.183,31.942c0.801,5.247,5.406,8.508,11.918,8.508c7.923,0,11.737-3.581,11.737-8.405
		c0-5.067-3.525-7.48-9.095-8.983c-5.983-1.614-6.854-2.142-6.854-3.509c0-0.926,0.947-2.36,3.773-2.36
		c3.058,0,4.659,1.413,5.176,3.154l6.506-1.12c-1.29-4.712-5.328-7.734-11.683-7.734c-5.921,0-10.375,3.812-10.375,8.296
		c0,4.686,2.977,6.72,8.68,8.136c5.892,1.461,7.315,2.561,7.315,3.883c0,1.532-1.54,2.644-4.971,2.644
		c-2.835,0-4.973-1.408-5.37-3.71L97.183,31.942z"/>
	<path fill="#FFFFFF" d="M224.828,15.367c-1.111-2.116-3.733-3.888-6.958-3.888c-7.316,0-12.834,6.296-12.834,14.647
		c0,8.302,5.271,14.327,12.532,14.327c2.9,0,5.886-1.773,6.997-4.353v14.611h6.654V12.143h-5.941L224.828,15.367z M218.274,34.251
		c-3.667,0-6.645-3.721-6.645-8.315c0-4.591,2.976-8.315,6.645-8.315c3.672,0,6.648,3.722,6.648,8.315
		C224.921,30.53,221.946,34.251,218.274,34.251z"/>
	<path fill="#FFFFFF" d="M169.863,33.732c-0.744,0-1.364-0.438-1.364-1.247V12.144h-5.941l-0.417,3.232
		c-1.362-2.523-4.156-3.897-6.989-3.897c-7.319,0-12.838,6.296-12.838,14.647c0,8.302,5.272,14.327,12.532,14.327
		c3.235,0,6.598-2.207,7.534-4.456c0.036,1.92,1.777,3.795,5.138,3.795c2.42,0,4.529-0.651,4.529-0.651v-5.962
		C172.049,33.179,170.695,33.732,169.863,33.732z M155.554,34.251c-3.669,0-6.646-3.721-6.646-8.315
		c0-4.591,2.976-8.315,6.646-8.315c3.671,0,6.646,3.722,6.646,8.315C162.199,30.53,159.225,34.251,155.554,34.251z"/>
</g>
</svg>
